<svg width="80" height="25" viewBox="0 0 80 25" fill="none" xmlns="http://www.w3.org/2000/svg">
<path d="M56.3414 5.34769H52.1119C52.0158 5.34769 51.9196 5.444 51.9196 5.54029V7.99572C51.9196 8.09201 52.0158 8.18831 52.1119 8.18831H56.3414C56.4375 8.18831 56.5336 8.09201 56.5336 7.99572V5.54029C56.5817 5.444 56.4855 5.34769 56.3414 5.34769ZM56.2933 9.00679H48.1227C48.0266 9.00679 47.8824 9.10308 47.8343 9.19937L46.777 13.1955L46.7289 13.3881L45.4793 9.10308C45.4312 9.00679 45.3351 8.9105 45.1909 8.9105H42.0188C41.9227 8.9105 41.7785 9.00679 41.7305 9.10308L40.5289 13.0992L40.4808 13.2918L40.4328 13.1955L39.9522 11.2215L39.4235 9.24752C39.3754 9.15122 39.2793 9.05494 39.1351 9.05494H32.7428V5.58842C32.7428 5.49213 32.5986 5.34769 32.4545 5.39584L28.4172 6.64764C28.273 6.69578 28.225 6.74393 28.225 6.84022V9.00679H27.1676C27.0715 9.00679 26.9754 9.10308 26.9754 9.19937V12.2807C26.9754 12.377 27.0715 12.4733 27.1676 12.4733H28.225V16.2287C28.225 18.8767 29.6669 20.1285 32.3103 20.1285C33.4157 20.1285 34.4731 19.8878 35.194 19.5026V16.325C35.194 16.1805 35.0498 16.1324 34.9537 16.1324C34.5211 16.325 34.1847 16.3731 33.8002 16.3731C33.0793 16.3731 32.6948 16.0842 32.6948 15.2658V12.5215H35.0017C35.0979 12.5215 35.194 12.4251 35.194 12.3289V9.72898L38.2219 19.7915C38.27 19.8878 38.3661 19.9841 38.5103 19.9841H41.8746C41.9708 19.9841 42.115 19.8878 42.163 19.7915L43.6049 15.3139L44.3258 17.6249L44.9987 19.7433C45.0467 19.8396 45.1429 19.9359 45.2871 19.9359H48.6514C48.7475 19.9359 48.8917 19.8396 48.9398 19.7433L52.0158 9.63269V19.7433C52.0158 19.8396 52.1119 19.9359 52.208 19.9359H56.2933C56.3894 19.9359 56.4855 19.8396 56.4855 19.7433V9.24752C56.4855 9.10308 56.3894 9.00679 56.2933 9.00679V9.00679ZM61.6763 5.34769H57.591C57.4948 5.34769 57.3987 5.444 57.3987 5.54029V19.7433C57.3987 19.8396 57.4948 19.9359 57.591 19.9359H61.6763C61.7724 19.9359 61.8685 19.8396 61.8685 19.7433V5.54029C61.8685 5.444 61.7724 5.34769 61.6763 5.34769ZM67.1073 5.34769H62.8778C62.7817 5.34769 62.6856 5.444 62.6856 5.54029V7.99572C62.6856 8.09201 62.7817 8.18831 62.8778 8.18831H67.1073C67.2034 8.18831 67.2995 8.09201 67.2995 7.99572V5.54029C67.3476 5.444 67.2515 5.34769 67.1073 5.34769ZM67.0592 9.00679H62.9739C62.8778 9.00679 62.7817 9.10308 62.7817 9.19937V19.7433C62.7817 19.8396 62.8778 19.9359 62.9739 19.9359H67.0592C67.1553 19.9359 67.2515 19.8396 67.2515 19.7433V9.24752C67.2515 9.10308 67.1553 9.00679 67.0592 9.00679V9.00679ZM73.836 8.76606C70.2313 8.76606 67.684 11.4141 67.684 14.4954V14.5436C67.684 17.6249 70.2313 20.2248 73.7879 20.2248C77.3926 20.2248 79.9399 17.5768 79.9399 14.4954V14.4473C79.9399 11.3659 77.3926 8.76606 73.836 8.76606ZM75.5662 14.4954C75.5662 15.5546 74.8453 16.3731 73.836 16.3731C72.8267 16.3731 72.0577 15.5065 72.0577 14.4473V14.3991C72.0577 13.3399 72.7786 12.5215 73.7879 12.5215C74.7972 12.5215 75.5662 13.3881 75.5662 14.4954ZM12.0761 0.629395C5.44351 0.629395 0.0605469 6.02174 0.0605469 12.6659C0.0605469 19.31 5.44351 24.7024 12.0761 24.7024C18.7087 24.7024 24.0916 19.31 24.0916 12.6659C24.0916 6.02174 18.7087 0.629395 12.0761 0.629395ZM12.0761 21.5247C7.17375 21.5247 3.23265 17.5768 3.23265 12.6659C3.23265 7.755 7.17375 3.80703 12.0761 3.80703C16.9784 3.80703 20.9195 7.755 20.9195 12.6659C20.9195 17.5768 16.9784 21.5247 12.0761 21.5247Z" fill="#F12E45"/>
<path d="M15.0559 12.1844C16.4362 12.1844 17.5551 11.0635 17.5551 9.68083C17.5551 8.29813 16.4362 7.17725 15.0559 7.17725C13.6756 7.17725 12.5566 8.29813 12.5566 9.68083C12.5566 11.0635 13.6756 12.1844 15.0559 12.1844Z" fill="#F12E45"/>
<path d="M15.0559 18.1541C16.4362 18.1541 17.5551 17.0333 17.5551 15.6506C17.5551 14.2679 16.4362 13.147 15.0559 13.147C13.6756 13.147 12.5566 14.2679 12.5566 15.6506C12.5566 17.0333 13.6756 18.1541 15.0559 18.1541Z" fill="#F12E45"/>
<path d="M9.09688 18.1541C10.4772 18.1541 11.5961 17.0333 11.5961 15.6506C11.5961 14.2679 10.4772 13.147 9.09688 13.147C7.71659 13.147 6.59766 14.2679 6.59766 15.6506C6.59766 17.0333 7.71659 18.1541 9.09688 18.1541Z" fill="#F12E45"/>
<path d="M9.09688 12.1844C10.4772 12.1844 11.5961 11.0635 11.5961 9.68083C11.5961 8.29813 10.4772 7.17725 9.09688 7.17725C7.71659 7.17725 6.59766 8.29813 6.59766 9.68083C6.59766 11.0635 7.71659 12.1844 9.09688 12.1844Z" fill="#F12E45"/>
</svg>
