<svg width="106" height="20" viewBox="0 0 106 20" fill="none" xmlns="http://www.w3.org/2000/svg">
<g clip-path="url(#clip0_148_5995)">
<path opacity="0.4" d="M0 6.37305V12.6406H6.12566V18.8934H12.2658V6.37305H0Z" fill="#00B2E3"/>
<path d="M21.8301 16.2979L24.5028 14.1596C25.2541 15.4868 26.4532 16.2537 27.8257 16.2537C29.3138 16.2537 30.1084 15.2656 30.1084 14.189C30.1084 12.906 28.577 12.4931 26.9444 11.977C24.8929 11.3281 22.5958 10.517 22.5958 7.5233C22.5958 5.01627 24.734 3.02539 27.6957 3.02539C30.1951 3.02539 31.6254 3.98396 32.8678 5.29646L30.4551 7.15462C29.8195 6.19605 28.9237 5.67989 27.7246 5.67989C26.3665 5.67989 25.6297 6.432 25.6297 7.42007C25.6297 8.61459 27.1034 9.02752 28.7359 9.58791C30.8163 10.281 33.1712 11.2101 33.1712 14.2185C33.1712 16.7108 31.2353 19.0999 27.8546 19.0999C25.0663 19.1146 23.217 17.9054 21.8301 16.2979ZM45.3214 8.17218H48.182V9.3667C48.861 8.48187 49.8868 7.95097 51.0859 7.95097C53.5564 7.95097 55.0589 9.57316 55.0589 12.3456V18.8787H52.1406V12.7438C52.1406 11.3133 51.4905 10.4727 50.2046 10.4727C49.1066 10.4727 48.2109 11.2396 48.2109 13.0388V18.8934H45.3359V8.17218H45.3214ZM55.7091 13.5402C55.7091 9.75013 58.4396 7.96571 60.809 7.96571C62.167 7.96571 63.2506 8.48187 63.9441 9.23398V3.2466H66.8191V18.8934H63.9441V17.6989C63.2506 18.5395 62.1381 19.1146 60.7801 19.1146C58.5552 19.1146 55.7091 17.3007 55.7091 13.5402ZM64.0307 13.5107C64.0307 11.918 62.9038 10.635 61.3435 10.635C59.7543 10.635 58.5263 11.859 58.5263 13.5107C58.5263 15.1624 59.7399 16.4011 61.3435 16.4011C62.8894 16.4011 64.0307 15.1034 64.0307 13.5107ZM67.4981 11.0774C67.4981 6.62372 70.7921 3.04014 75.3286 3.04014C77.5968 3.04014 79.5038 3.88073 80.8908 5.20798C81.4542 5.75363 81.931 6.37301 82.3066 7.05139L79.7494 8.64409C78.8104 6.85967 77.3512 5.94534 75.3574 5.94534C72.5691 5.94534 70.402 8.27541 70.402 11.0921C70.402 13.9678 72.5258 16.2389 75.4586 16.2389C77.6835 16.2389 79.2582 14.9559 79.8072 12.965H74.9963V10.0893H82.9567V11.2838C82.9567 15.4868 80.0239 19.0999 75.4586 19.0999C70.6621 19.1146 67.4981 15.3983 67.4981 11.0774ZM83.6791 8.17218H86.5397V9.9271C87.0598 8.80631 88.0133 8.17218 89.4436 8.17218H90.5994L89.5447 11.0331H88.7646C87.2332 11.0331 86.5541 11.8442 86.5541 13.8351V18.8934H83.6791V8.17218ZM91.3362 8.17218H94.2112V18.8934H91.3362V11.0331H90.296L91.3362 8.17218ZM92.7809 6.54998C93.7345 6.54998 94.5002 5.76838 94.5002 4.79506C94.5002 3.82174 93.7345 3.04014 92.7809 3.04014C91.8274 3.04014 91.0617 3.82174 91.0617 4.79506C91.0617 5.75363 91.8274 6.54998 92.7809 6.54998ZM94.8902 13.5402C94.8902 9.75013 97.6208 7.96571 99.9902 7.96571C101.348 7.96571 102.432 8.48187 103.125 9.23398V3.2466H106V18.8934H103.125V17.6989C102.432 18.5395 101.319 19.1146 99.9613 19.1146C97.7219 19.1146 94.8902 17.3007 94.8902 13.5402ZM103.212 13.5107C103.212 11.918 102.085 10.635 100.525 10.635C98.9355 10.635 97.7075 11.859 97.7075 13.5107C97.7075 15.1624 98.921 16.4011 100.525 16.4011C102.071 16.4011 103.212 15.1034 103.212 13.5107ZM44.6424 13.5107C44.6424 10.4285 42.432 7.96571 39.2247 7.96571C36.2052 7.96571 33.7636 10.458 33.7636 13.5402C33.7636 16.6223 36.0318 19.1146 39.3114 19.1146C41.5796 19.1146 43.2121 17.9938 44.1223 16.4011L41.8396 15.0149C41.3629 15.9587 40.4238 16.5486 39.3258 16.5486C37.8088 16.5486 36.8698 15.7818 36.5375 14.602H44.6424V13.5107ZM36.6675 12.2277C37.1154 11.2249 38.0255 10.5317 39.2536 10.5317C40.4671 10.5317 41.3773 11.1069 41.7529 12.2277H36.6675Z" fill="#243746"/>
<path d="M0 12.6406H6.12566V18.8934H0V12.6406Z" fill="#1A82E2"/>
<path d="M12.2651 6.37294V0.120117H6.125V12.6405H18.3908V6.37294H12.2651Z" fill="#00B2E3"/>
<path d="M12.2656 0.120117H18.3913V6.37295H12.2656V0.120117Z" fill="#1A82E2"/>
</g>
<defs>
<clipPath id="clip0_148_5995">
<rect width="106" height="19" fill="white" transform="translate(0 0.117188)"/>
</clipPath>
</defs>
</svg>
