<svg width="74" height="21" viewBox="0 0 74 21" fill="none" xmlns="http://www.w3.org/2000/svg">
<path d="M14.5641 9.17742H8.43057C8.35456 9.17746 8.28168 9.20807 8.22793 9.26253C8.17418 9.31699 8.14397 9.39084 8.14393 9.46785V12.5063C8.14397 12.5834 8.17417 12.6573 8.2279 12.7118C8.28164 12.7663 8.35452 12.797 8.43057 12.7972H10.8233V16.5721C10.8233 16.5721 10.286 16.7578 8.80066 16.7578C7.04826 16.7578 4.60022 16.1089 4.60022 10.6547C4.60022 5.19944 7.14933 4.48152 9.5425 4.48152C11.6141 4.48152 12.5065 4.85126 13.0744 5.02912C13.2528 5.08456 13.4178 4.90469 13.4178 4.74408L14.1021 1.80849C14.1021 1.73349 14.077 1.64294 13.9925 1.5815C13.7619 1.41488 12.355 0.617188 8.80066 0.617188C4.706 0.617188 0.505859 2.38242 0.505859 10.8673C0.505859 19.3529 5.3147 20.6172 9.36696 20.6172C12.7222 20.6172 14.7576 19.1644 14.7576 19.1644C14.8415 19.1173 14.8506 18.9986 14.8506 18.944V9.4677C14.8506 9.30754 14.7223 9.17742 14.5641 9.17742ZM46.1741 1.63386C46.1744 1.59572 46.1673 1.5579 46.1531 1.52256C46.139 1.48722 46.1181 1.45506 46.0916 1.42793C46.0652 1.4008 46.0337 1.37923 45.999 1.36447C45.9643 1.3497 45.927 1.34203 45.8894 1.34189H42.4357C42.398 1.34203 42.3607 1.34969 42.3259 1.36444C42.2911 1.37919 42.2595 1.40073 42.233 1.42785C42.2064 1.45496 42.1854 1.48711 42.1711 1.52246C42.1568 1.5578 42.1495 1.59566 42.1496 1.63386L42.1505 8.39621H36.7673V1.63386C36.7676 1.59571 36.7605 1.55788 36.7463 1.52254C36.7321 1.48719 36.7112 1.45504 36.6847 1.42791C36.6582 1.40079 36.6267 1.37922 36.592 1.36446C36.5573 1.3497 36.52 1.34203 36.4824 1.34189H33.0289C32.9529 1.34229 32.8801 1.37328 32.8266 1.42803C32.7731 1.48278 32.7433 1.55682 32.7437 1.63386V19.9444C32.7437 20.1058 32.8718 20.2371 33.0289 20.2371H36.4824C36.6403 20.2371 36.7673 20.1056 36.7673 19.9444V12.1122H42.1505L42.1411 19.9444C42.1411 20.1058 42.2694 20.2371 42.4273 20.2371H45.8891C46.0473 20.2371 46.1738 20.1056 46.1741 19.9444V1.63386ZM21.0811 4.03678C21.0811 2.77665 20.0841 1.75844 18.8541 1.75844C17.6253 1.75844 16.6275 2.77665 16.6275 4.03678C16.6275 5.29538 17.6253 6.31621 18.8541 6.31621C20.0841 6.31621 21.0811 5.29538 21.0811 4.03678ZM20.8342 16.0819V7.62978C20.8344 7.55272 20.8044 7.47872 20.7508 7.42402C20.6973 7.36931 20.6245 7.33837 20.5484 7.33796H17.1058C16.9479 7.33796 16.8065 7.50304 16.8065 7.66366V19.7728C16.8065 20.1289 17.0254 20.2345 17.3087 20.2345H20.4104C20.7507 20.2345 20.8342 20.0651 20.8342 19.7673V16.0819ZM59.299 7.36552H55.8719C55.7147 7.36552 55.5867 7.49673 55.5867 7.65827V16.6364C55.5867 16.6364 54.716 17.282 53.4804 17.282C52.2447 17.282 51.9169 16.7139 51.9169 15.4879V7.65827C51.9169 7.49673 51.7891 7.36552 51.6319 7.36552H48.1535C47.9967 7.36552 47.868 7.49673 47.868 7.65827V16.0807C47.868 19.722 49.871 20.6129 52.6266 20.6129C54.8871 20.6129 56.7096 19.3477 56.7096 19.3477C56.7096 19.3477 56.7964 20.0143 56.8356 20.0935C56.875 20.1723 56.9773 20.2519 57.0877 20.2519L59.3007 20.2421C59.4575 20.2421 59.5863 20.1105 59.5863 19.9498L59.585 7.65842C59.585 7.49673 59.4569 7.36552 59.299 7.36552ZM67.314 17.2709C66.1253 17.2342 65.319 16.6876 65.319 16.6876V10.8892C65.319 10.8892 66.1144 10.3952 67.0903 10.3068C68.3244 10.1949 69.5135 10.5726 69.5135 13.5553C69.5137 16.7008 68.977 17.3216 67.314 17.2709ZM68.6658 6.95436C66.7193 6.95436 65.3953 7.83428 65.3953 7.83428V1.63401C65.3953 1.47232 65.2678 1.34189 65.1103 1.34189H61.647C61.6094 1.34207 61.5721 1.34977 61.5373 1.36455C61.5026 1.37933 61.4711 1.4009 61.4446 1.42803C61.4181 1.45516 61.3971 1.48731 61.3829 1.52266C61.3686 1.558 61.3614 1.59584 61.3616 1.63401V19.9444C61.3616 20.1058 61.4896 20.2371 61.6475 20.2371H64.0505C64.1586 20.2371 64.2405 20.1806 64.301 20.0817C64.3607 19.9833 64.4469 19.2376 64.4469 19.2376C64.4469 19.2376 65.8631 20.5973 68.544 20.5973C71.6913 20.5973 73.4963 18.9798 73.4963 13.3359C73.4963 7.69183 70.6136 6.95436 68.6658 6.95436ZM30.7599 7.33642H28.1693L28.1654 3.86862C28.1654 3.73742 28.0987 3.67182 27.9489 3.67182H24.4186C24.2814 3.67182 24.2077 3.73311 24.2077 3.86662V7.45022C24.2077 7.45022 22.4385 7.88279 22.3189 7.9179C22.2593 7.93542 22.2068 7.97211 22.1695 8.02243C22.1322 8.07276 22.1121 8.134 22.1121 8.19694V10.4488C22.1121 10.6108 22.2397 10.7411 22.3976 10.7411H24.2077V16.1583C24.2077 20.1822 26.9933 20.5775 28.873 20.5775C29.7319 20.5775 30.7593 20.2981 30.9289 20.2344C31.0315 20.1962 31.0911 20.0885 31.0911 19.9718L31.094 17.4946C31.094 17.333 30.9593 17.2025 30.8077 17.2025C30.6567 17.2025 30.2705 17.2647 29.8729 17.2647C28.6005 17.2647 28.1693 16.6652 28.1693 15.8893L28.1692 10.7409H30.7599C30.9178 10.7409 31.0457 10.6105 31.0457 10.4486V7.62793C31.0458 7.58976 31.0386 7.55194 31.0243 7.51662C31.0101 7.4813 30.989 7.44918 30.9625 7.4221C30.936 7.39502 30.9044 7.37352 30.8696 7.35881C30.8349 7.34411 30.7976 7.3365 30.7599 7.33642Z" fill="#121110"/>
</svg>
