<svg width="94" height="25" viewBox="0 0 94 25" fill="none" xmlns="http://www.w3.org/2000/svg">
<g clip-path="url(#clip0_148_6009)">
<path fill-rule="evenodd" clip-rule="evenodd" d="M30.0723 19.5145L31.2454 16.7639C32.5125 17.72 34.2007 18.217 35.8664 18.217C37.0959 18.217 37.8743 17.7389 37.8743 17.0143C37.8555 14.9884 30.5084 16.5742 30.452 11.4942C30.4332 8.91441 32.7043 6.92643 35.9228 6.92643C37.8367 6.92643 39.7467 7.40445 41.1116 8.49329L40.0137 11.3007C38.7654 10.4965 37.2125 9.92358 35.7348 9.92358C34.7309 9.92358 34.0691 10.4016 34.0691 11.0124C34.0879 13.0004 41.4914 11.9116 41.5666 16.7639C41.5666 19.4006 39.3519 21.2558 36.171 21.2558C33.8398 21.252 31.7003 20.6981 30.0723 19.5145ZM75.1208 15.7699C74.5342 16.8018 73.4363 17.5075 72.1654 17.5075C70.2892 17.5075 68.7777 15.9786 68.7777 14.0892C68.7777 12.1999 70.293 10.671 72.1654 10.671C73.4326 10.671 74.5342 11.3766 75.1208 12.4086L78.3582 10.5951C77.1474 8.41741 74.8162 6.92643 72.1654 6.92643C68.2438 6.92643 65.0628 10.136 65.0628 14.093C65.0628 18.05 68.2438 21.2596 72.1654 21.2596C74.835 21.2596 77.1474 19.7876 78.3582 17.591L75.1208 15.7699ZM43.1947 0.981445H47.2479V20.9865H43.1947V0.981445ZM79.9486 0.981445V20.9865H84.0019V14.9846L88.8109 20.9865H93.9997L87.8822 13.8578L93.5448 7.20717H88.5816L83.9981 12.7272V0.981445H79.9486Z" fill="black"/>
<path d="M59.2909 15.8081C58.7044 16.7831 57.4937 17.5077 56.1288 17.5077C54.2525 17.5077 52.741 15.9788 52.741 14.0895C52.741 12.2001 54.2563 10.6712 56.1288 10.6712C57.4937 10.6712 58.7044 11.4338 59.2909 12.4277V15.8081ZM59.2909 7.21119V8.83496C58.6292 7.70818 56.9823 6.92285 55.2564 6.92285C51.6957 6.92285 48.8945 10.0945 48.8945 14.0705C48.8945 18.0465 51.6957 21.2561 55.2564 21.2561C56.9785 21.2561 58.6254 20.4745 59.2909 19.344V20.9677H63.3442V7.21119H59.2909Z" fill="black"/>
<path fill-rule="evenodd" clip-rule="evenodd" d="M5.02033 15.7885C5.02033 17.1847 3.90361 18.3115 2.51993 18.3115C1.13625 18.3115 0.0195312 17.1809 0.0195312 15.7885C0.0195312 14.3962 1.13625 13.2656 2.51993 13.2656H5.02033V15.7885ZM6.26865 15.7885C6.26865 14.3924 7.38537 13.2656 8.76905 13.2656C10.1527 13.2656 11.2695 14.3924 11.2695 15.7885V22.094C11.2695 23.4901 10.1527 24.6169 8.76905 24.6169C7.38537 24.6169 6.26865 23.4901 6.26865 22.094V15.7885Z" fill="#E01E5A"/>
<path fill-rule="evenodd" clip-rule="evenodd" d="M8.76832 5.66303C7.38464 5.66303 6.26792 4.53625 6.26792 3.14011C6.26792 1.74397 7.38464 0.617188 8.76832 0.617188C10.152 0.617188 11.2687 1.74397 11.2687 3.14011V5.66303H8.76832ZM8.76832 6.94156C10.152 6.94156 11.2687 8.06834 11.2687 9.46448C11.2687 10.8606 10.152 11.9874 8.76832 11.9874H2.5004C1.11672 11.9874 0 10.8568 0 9.46448C0 8.07213 1.11672 6.94156 2.5004 6.94156H8.76832Z" fill="#36C5F0"/>
<path fill-rule="evenodd" clip-rule="evenodd" d="M18.7843 9.46448C18.7843 8.06834 19.901 6.94156 21.2847 6.94156C22.6684 6.94156 23.7851 8.06834 23.7851 9.46448C23.7851 10.8606 22.6684 11.9874 21.2847 11.9874H18.7843V9.46448ZM17.536 9.46448C17.536 10.8606 16.4192 11.9874 15.0356 11.9874C13.6519 11.9874 12.5352 10.8606 12.5352 9.46448V3.14011C12.5352 1.74397 13.6519 0.617188 15.0356 0.617188C16.4192 0.617188 17.536 1.74397 17.536 3.14011V9.46448Z" fill="#2EB67D"/>
<path fill-rule="evenodd" clip-rule="evenodd" d="M15.0356 19.571C16.4192 19.571 17.536 20.6978 17.536 22.094C17.536 23.4901 16.4192 24.6169 15.0356 24.6169C13.6519 24.6169 12.5352 23.4901 12.5352 22.094V19.571H15.0356ZM15.0356 18.3115C13.6519 18.3115 12.5352 17.1847 12.5352 15.7885C12.5352 14.3924 13.6519 13.2656 15.0356 13.2656H21.3035C22.6872 13.2656 23.8039 14.3924 23.8039 15.7885C23.8039 17.1847 22.6872 18.3115 21.3035 18.3115H15.0356Z" fill="#ECB22E"/>
</g>
<defs>
<clipPath id="clip0_148_6009">
<rect width="94" height="24" fill="white" transform="translate(0 0.617188)"/>
</clipPath>
</defs>
</svg>

