<svg width="68" height="23" viewBox="0 0 68 23" fill="none" xmlns="http://www.w3.org/2000/svg">
<path d="M19.4457 11.5674C19.4457 8.17494 19.4511 4.77984 19.4377 1.38999C19.4377 0.91845 19.7578 0.625047 20.242 0.625047C21.1378 0.619807 22.039 0.617188 22.9348 0.625047C23.4433 0.630286 23.7392 0.931548 23.7338 1.39523C23.7203 4.39737 23.7257 7.40476 23.7257 10.4069V10.5719C23.7311 10.9046 23.8817 11.1483 24.1965 11.2792C24.5005 11.405 24.7856 11.3395 25.0331 11.0828C25.937 10.1397 26.8382 9.19399 27.7367 8.24829C28.2882 7.66672 28.8477 7.09301 29.3938 6.50883C29.6009 6.28878 29.8404 6.18399 30.1497 6.18923C31.2769 6.19709 32.4094 6.19709 33.5366 6.18923C33.8701 6.18923 34.1338 6.28878 34.2737 6.59004C34.4162 6.90178 34.349 7.17946 34.1096 7.43357C32.4175 9.25686 30.7308 11.0828 29.0414 12.9061C28.9069 13.0528 28.7751 13.2047 28.6702 13.3724C28.4818 13.6684 28.4818 13.9592 28.6567 14.2604C28.845 14.5853 29.1113 14.8472 29.375 15.1118C31.4221 17.1604 33.4747 19.209 35.5273 21.2523C35.7747 21.5012 35.8474 21.7737 35.7236 22.0933C35.6053 22.3919 35.3712 22.5281 34.9865 22.5281C33.733 22.5281 32.4767 22.5229 31.2231 22.5281C30.9406 22.5281 30.7227 22.4417 30.521 22.2321C28.6997 20.3695 26.8651 18.5174 25.0358 16.6627C24.7749 16.3955 24.4843 16.3274 24.183 16.4505C23.8791 16.5684 23.7203 16.8199 23.7203 17.184V21.7501C23.7203 22.2426 23.4648 22.4967 22.9644 22.4993H20.2097C19.6583 22.4993 19.4431 22.2871 19.4431 21.7579L19.4457 11.5674ZM36.5387 8.15398C36.5387 5.90892 36.5468 3.66125 36.5307 1.41619C36.5253 0.907971 36.8293 0.617188 37.3592 0.617188C38.2308 0.622427 39.097 0.617188 39.966 0.617188C40.4744 0.617188 40.7649 0.894873 40.7649 1.38737C40.7703 2.69721 40.7703 4.00966 40.773 5.3195C40.773 5.88535 41.0716 6.17875 41.6473 6.17875H45.2655C45.6475 6.17875 45.8977 6.38046 45.973 6.7446C46.0106 6.92012 45.9972 7.09563 46.0026 7.27639V9.4481C46.0026 10.0166 45.7416 10.2707 45.1579 10.2707C44.0011 10.2707 42.8444 10.2654 41.6876 10.2654C41.0958 10.2654 40.7918 10.5562 40.7864 11.1247C40.7811 12.28 40.7622 13.43 40.7784 14.5853C40.8026 16.3457 42.188 17.9673 43.9877 18.3812C44.5176 18.5043 45.0556 18.5253 45.5937 18.4519C46.0322 18.3917 46.3496 18.6196 46.4007 19.0492C46.511 19.9635 46.6105 20.8803 46.7074 21.7946C46.745 22.143 46.4841 22.4626 46.1156 22.5203C45.1229 22.6853 44.1302 22.6277 43.1537 22.4129C39.6673 21.6531 37.1064 18.9392 36.606 15.4995C36.5549 15.159 36.5387 14.8184 36.5387 14.4805V8.15398ZM67.4939 18.8815C67.4939 18.5698 67.2491 18.3524 66.929 18.3366C66.7111 18.3288 66.4959 18.3209 66.278 18.3026C65.1643 18.2214 64.5913 17.7132 64.3895 16.6443C64.2335 15.8296 64.2389 15.0018 64.2335 14.174C64.2254 11.7979 64.2281 9.4219 64.2281 7.04586C64.2281 6.97513 64.2281 6.90964 64.2227 6.84153C64.1931 6.45643 63.908 6.18137 63.5071 6.18137C62.5683 6.17613 61.6268 6.17613 60.6879 6.18137C60.2629 6.18137 59.9616 6.47739 59.9427 6.88606C59.9374 6.98561 59.9427 7.08778 59.9427 7.20566C59.862 7.16375 59.8002 7.13493 59.741 7.10611C58.0462 6.239 56.2492 5.9587 54.3608 6.2652C49.5535 7.0511 46.4195 11.7403 47.6139 16.3405C49.1312 22.1771 56.3165 24.5007 61.1237 20.7022C61.2367 20.6131 61.2824 20.6158 61.3712 20.7363C61.8662 21.4252 62.5199 21.923 63.3323 22.2242C64.2281 22.5569 65.1616 22.6015 66.1085 22.536C66.4448 22.5124 66.7783 22.4652 67.085 22.3159C67.3029 22.2085 67.4805 22.0487 67.4858 21.8051C67.5047 20.8306 67.4993 19.8561 67.4939 18.8815ZM55.7973 18.4598C53.4596 18.4519 51.6007 16.5998 51.6088 14.2788C51.6168 12.0835 53.5268 10.2602 55.8188 10.2654C58.17 10.2707 60.0261 12.1097 60.0208 14.436C60.0127 16.6286 58.0893 18.4624 55.7973 18.4598ZM8.94623 6.14731C4.48063 6.15517 0.601488 9.51359 0.501954 14.1792C0.399729 19.0047 4.32461 22.4574 8.70681 22.5648C13.393 22.6801 17.2748 19.078 17.3555 14.5276C17.4335 9.89606 13.7077 6.19971 8.94623 6.14731ZM8.91664 18.4598C6.61121 18.4598 4.72005 16.6155 4.71467 14.3626C4.70929 12.1071 6.59776 10.2654 8.92471 10.2576C11.2463 10.2523 13.1267 12.0887 13.1267 14.3574C13.1267 16.626 11.2463 18.4598 8.91664 18.4598Z" fill="#00297A"/>
</svg>
