<svg width="104" height="23" viewBox="0 0 104 23" fill="none" xmlns="http://www.w3.org/2000/svg">
<path d="M103.149 10.5702V8.75889H100.914V5.94293L100.838 5.96625L98.739 6.61267L98.6976 6.62533V8.75899H95.384V7.57036C95.384 7.01689 95.507 6.59334 95.7493 6.31088C95.99 6.03181 96.3343 5.88993 96.7733 5.88993C97.089 5.88993 97.4158 5.96475 97.7447 6.11231L97.8272 6.14938V4.24178L97.7884 4.22743C97.4815 4.11644 97.0642 4.06055 96.5469 4.06055C95.895 4.06055 95.3026 4.20332 94.786 4.48628C94.2691 4.76964 93.8624 5.17416 93.5776 5.68847C93.2938 6.20218 93.1497 6.7955 93.1497 7.45209V8.75889H91.5933V10.5702H93.1497V18.2011H95.384V10.5702H98.6976V15.4195C98.6976 17.4167 99.6337 18.4288 101.48 18.4288C101.783 18.4288 102.103 18.393 102.429 18.323C102.76 18.251 102.987 18.1792 103.12 18.1025L103.149 18.0849V16.2569L103.058 16.3173C102.937 16.3986 102.786 16.4651 102.609 16.5145C102.431 16.5648 102.282 16.59 102.167 16.59C101.735 16.59 101.415 16.4728 101.216 16.2413C101.016 16.0078 100.914 15.5994 100.914 15.0281V10.5702H103.149ZM86.6038 16.5903C85.7928 16.5903 85.1534 16.3197 84.7029 15.7867C84.2495 15.2509 84.0198 14.4872 84.0198 13.5167C84.0198 12.5155 84.2495 11.7319 84.7031 11.1867C85.1539 10.6451 85.7872 10.3702 86.5856 10.3702C87.3603 10.3702 87.977 10.6327 88.4188 11.1509C88.8627 11.6718 89.0881 12.4491 89.0881 13.462C89.0881 14.4874 88.8762 15.275 88.4584 15.8018C88.0434 16.3247 87.4195 16.5903 86.6038 16.5903ZM86.7031 8.53143C85.1559 8.53143 83.927 8.98765 83.0508 9.88745C82.1752 10.7873 81.7313 12.0327 81.7313 13.5892C81.7313 15.0675 82.1646 16.2567 83.0194 17.123C83.8743 17.9896 85.0376 18.4286 86.4769 18.4286C87.9766 18.4286 89.181 17.966 90.0568 17.0537C90.9326 16.1425 91.3762 14.9089 91.3762 13.3888C91.3762 11.8873 90.9599 10.6893 90.1384 9.82876C89.3166 8.96782 88.1606 8.53143 86.7031 8.53143ZM78.1289 8.53143C77.0765 8.53143 76.2059 8.80233 75.5409 9.33647C74.8718 9.8738 74.5324 10.5785 74.5324 11.4313C74.5324 11.8745 74.6057 12.2683 74.7498 12.6023C74.8949 12.9373 75.1193 13.2324 75.4175 13.48C75.7135 13.7256 76.1703 13.9828 76.7756 14.2445C77.2845 14.4553 77.664 14.6335 77.9051 14.774C78.1407 14.9117 78.3079 15.0501 78.4024 15.1849C78.4941 15.3168 78.5407 15.4973 78.5407 15.7201C78.5407 16.3545 78.0686 16.6632 77.0973 16.6632C76.737 16.6632 76.326 16.5874 75.8758 16.4382C75.4288 16.2912 75.007 16.0759 74.625 15.7999L74.5322 15.733V17.8977L74.5663 17.9137C74.8824 18.0605 75.281 18.1844 75.7508 18.2818C76.2197 18.3794 76.6457 18.429 77.0158 18.429C78.1578 18.429 79.0775 18.1568 79.7486 17.6194C80.4239 17.0784 80.7662 16.3571 80.7662 15.4748C80.7662 14.8384 80.5819 14.2926 80.2187 13.8524C79.8581 13.4158 79.232 13.015 78.3589 12.6607C77.6633 12.3797 77.2177 12.1465 77.0338 11.9674C76.8566 11.7944 76.7666 11.5498 76.7666 11.2401C76.7666 10.9655 76.8777 10.7455 77.1057 10.5673C77.3355 10.3883 77.6554 10.2972 78.0565 10.2972C78.4288 10.2972 78.8097 10.3564 79.1885 10.4724C79.567 10.5884 79.8994 10.7437 80.177 10.9337L80.2682 10.9965V8.94301L80.2332 8.92787C79.9772 8.81738 79.6396 8.72282 79.2295 8.64611C78.8213 8.56989 78.451 8.53143 78.1289 8.53143ZM68.7077 16.5903C67.897 16.5903 67.2574 16.3197 66.8069 15.7867C66.3535 15.2509 66.1242 14.4874 66.1242 13.5167C66.1242 12.5155 66.3538 11.7319 66.8074 11.1867C67.2579 10.6451 67.891 10.3702 68.6898 10.3702C69.4642 10.3702 70.081 10.6327 70.5228 11.1509C70.9669 11.6718 71.1921 12.4491 71.1921 13.462C71.1921 14.4874 70.9801 15.275 70.5623 15.8018C70.1474 16.3247 69.5238 16.5903 68.7077 16.5903ZM68.8073 8.53143C67.2598 8.53143 66.0308 8.98765 65.1551 9.88745C64.2795 10.7873 63.8352 12.0327 63.8352 13.5892C63.8352 15.0681 64.2689 16.2567 65.1237 17.123C65.9785 17.9896 67.1418 18.4286 68.581 18.4286C70.0806 18.4286 71.2853 17.966 72.1611 17.0537C73.0366 16.1425 73.4805 14.9089 73.4805 13.3888C73.4805 11.8873 73.064 10.6893 72.2424 9.82876C71.4203 8.96782 70.2645 8.53143 68.8073 8.53143ZM60.4437 10.3941V8.75889H58.2366V18.2009H60.4437V13.371C60.4437 12.5497 60.6287 11.8749 60.9938 11.3653C61.3543 10.8618 61.8347 10.6066 62.4212 10.6066C62.62 10.6066 62.8432 10.6396 63.0849 10.7048C63.3241 10.7697 63.4973 10.8401 63.5995 10.9143L63.6923 10.9819V8.74275L63.6565 8.72731C63.451 8.63943 63.1602 8.59509 62.7923 8.59509C62.2377 8.59509 61.7413 8.77443 61.3162 9.12754C60.943 9.4379 60.6734 9.86343 60.4671 10.3941H60.4437ZM54.2842 8.53143C53.2716 8.53143 52.3685 8.74992 51.6003 9.18064C50.8305 9.61236 50.2352 10.2287 49.8301 11.0124C49.4269 11.7942 49.2221 12.7075 49.2221 13.7259C49.2221 14.6181 49.4207 15.4368 49.813 16.1583C50.2056 16.8811 50.7612 17.4465 51.4646 17.8386C52.1669 18.2303 52.9787 18.4289 53.8774 18.4289C54.9263 18.4289 55.8218 18.2179 56.5398 17.8017L56.5688 17.7849V15.7501L56.4761 15.8183C56.1508 16.0567 55.7874 16.247 55.3963 16.3841C55.0062 16.5211 54.6506 16.5903 54.3387 16.5903C53.4727 16.5903 52.7775 16.3176 52.2728 15.78C51.7671 15.2417 51.5107 14.4858 51.5107 13.5346C51.5107 12.5774 51.7781 11.802 52.3051 11.2299C52.8305 10.6595 53.5271 10.3702 54.3751 10.3702C55.1006 10.3702 55.8075 10.6174 56.4763 11.1056L56.5688 11.1732V9.0292L56.5389 9.01226C56.2873 8.87048 55.944 8.75341 55.5179 8.66464C55.0935 8.57606 54.6785 8.53143 54.2842 8.53143ZM47.7021 8.75899H45.495V18.2009H47.7021V8.75899ZM46.6211 4.73666C46.2579 4.73666 45.9411 4.86111 45.6808 5.1077C45.4194 5.35499 45.2868 5.66635 45.2868 6.0338C45.2868 6.39547 45.4178 6.70115 45.6767 6.94186C45.9339 7.18188 46.2518 7.30354 46.6212 7.30354C46.9906 7.30354 47.3096 7.18188 47.5699 6.94226C47.8319 6.70115 47.9648 6.39557 47.9648 6.0338C47.9648 5.6792 47.8355 5.37103 47.5807 5.11766C47.3262 4.86479 47.0032 4.73666 46.6211 4.73666ZM41.1144 8.06235V18.2009H43.3668V5.0257H40.2494L36.2869 14.8119L32.4416 5.0257H29.1973V18.2008H31.3139V8.06135H31.3866L35.4472 18.2009H37.0445L41.0417 8.06235H41.1144Z" fill="#706D6E"/>
<path d="M11.1834 11.0715H0.800781V0.623047H11.1834V11.0715Z" fill="#F1511B"/>
<path d="M22.6481 11.0715H12.2656V0.623047H22.6481V11.0715Z" fill="#80CC28"/>
<path d="M11.1831 22.6114H0.800781V12.1631H11.1831V22.6114Z" fill="#00ADEF"/>
</svg>
