<svg width="76" height="18" viewBox="0 0 76 18" fill="none" xmlns="http://www.w3.org/2000/svg">
<path fill-rule="evenodd" clip-rule="evenodd" d="M61.8781 5.21505C62.1686 5.71394 62.2637 6.28156 62.295 6.91969L62.3363 7.77022V13.7177L62.3784 14.5692C62.4627 15.9596 63.4929 16.9878 64.9006 17.0752L65.7515 17.1172V7.77022L65.7937 6.91969C65.8286 6.2887 65.9228 5.71037 66.2178 5.20791C66.5184 4.69253 66.9499 4.26494 67.469 3.96806C67.9881 3.67118 68.5766 3.51547 69.1753 3.51655C69.774 3.51764 70.3619 3.67548 70.8799 3.97424C71.3979 4.273 71.8279 4.70215 72.1266 5.21862C72.4171 5.71751 72.5076 6.29584 72.5426 6.91969L72.5847 7.76755V13.7177L72.6269 14.5692C72.7148 15.9668 73.7369 16.9949 75.1491 17.0752L76 17.1172V6.91969C76 5.11649 75.2805 3.38711 73.9998 2.1118C72.7191 0.8365 70.982 0.119684 69.1704 0.118974C68.2008 0.117957 67.2421 0.322911 66.3585 0.720145C65.4748 1.11738 64.6865 1.69775 64.0462 2.42247C63.4055 1.69803 62.6172 1.1178 61.7336 0.720453C60.85 0.323102 59.8915 0.11775 58.9219 0.118082C57.5035 0.118082 56.1872 0.546473 55.0969 1.28634C54.4316 0.547366 52.9432 0.118082 52.0887 0.118082V17.1172L52.9432 17.0752C54.3724 16.9815 55.4053 15.9811 55.4609 14.5692L55.5067 13.7177V7.77022L55.5488 6.91969C55.5847 6.27799 55.6743 5.71394 55.9657 5.21148C56.2666 4.69642 56.6979 4.26893 57.2166 3.97169C57.7354 3.67444 58.3234 3.51785 58.9219 3.51755C59.5209 3.51767 60.1094 3.67458 60.6282 3.97252C61.1471 4.27046 61.5781 4.69896 61.8781 5.21505ZM3.41526 17.0761L4.26974 17.1172H17.0781L17.0359 16.2693C16.9203 14.8717 15.9259 13.8507 14.5173 13.7597L13.6628 13.7177H5.97872L16.2236 3.51665L16.1814 2.66969C16.1151 1.25778 15.0786 0.237675 13.6628 0.160029L12.8083 0.121652L0 0.118082L0.0421415 0.968617C0.15422 2.35286 1.16293 3.39528 2.55987 3.4756L3.41526 3.51755H11.0994L0.854487 13.7186L0.896628 14.5692C0.980911 15.9703 1.99679 16.9851 3.41526 17.0752V17.0761ZM48.7362 2.60632C49.5293 3.39556 50.1584 4.33258 50.5876 5.36385C51.0168 6.39513 51.2378 7.50047 51.2378 8.61674C51.2378 9.73301 51.0168 10.8384 50.5876 11.8696C50.1584 12.9009 49.5293 13.8379 48.7362 14.6272C47.134 16.2207 44.9616 17.1159 42.6965 17.1159C40.4315 17.1159 38.2591 16.2207 36.6568 14.6272C33.3223 11.308 33.3223 5.92546 36.6568 2.60632C37.4492 1.81735 38.3899 1.19145 39.4253 0.764359C40.4607 0.337272 41.5704 0.117364 42.6912 0.11719C43.8137 0.116414 44.9255 0.335935 45.9627 0.763197C47 1.19046 47.9425 1.81708 48.7362 2.60721V2.60632ZM46.3198 5.01335C47.2803 5.97011 47.8198 7.26732 47.8198 8.61987C47.8198 9.97242 47.2803 11.2696 46.3198 12.2264C45.3586 13.1824 44.0554 13.7195 42.6965 13.7195C41.3377 13.7195 40.0345 13.1824 39.0733 12.2264C38.1128 11.2696 37.5733 9.97242 37.5733 8.61987C37.5733 7.26732 38.1128 5.97011 39.0733 5.01335C40.0345 4.05731 41.3377 3.52028 42.6965 3.52028C44.0554 3.52028 45.3586 4.05731 46.3198 5.01335ZM24.7694 0.11719C25.8902 0.117481 27 0.33753 28.0353 0.764772C29.0707 1.19201 30.0114 1.81808 30.8037 2.60721C34.1391 5.92546 34.1391 11.3089 30.8037 14.6272C29.2014 16.2207 27.029 17.1159 24.764 17.1159C22.4989 17.1159 20.3266 16.2207 18.7243 14.6272C15.3897 11.308 15.3897 5.92546 18.7243 2.60632C19.5166 1.81735 20.4573 1.19145 21.4927 0.764359C22.5281 0.337272 23.6378 0.117364 24.7586 0.11719H24.7694ZM28.3872 5.01156C29.348 5.96836 29.8877 7.26576 29.8877 8.61853C29.8877 9.9713 29.348 11.2687 28.3872 12.2255C27.426 13.1815 26.1228 13.7186 24.764 13.7186C23.4051 13.7186 22.1019 13.1815 21.1407 12.2255C20.1802 11.2687 19.6407 9.97152 19.6407 8.61897C19.6407 7.26642 20.1802 5.96921 21.1407 5.01245C22.1019 4.05642 23.4051 3.51938 24.764 3.51938C26.1228 3.51938 27.426 4.05642 28.3872 5.01245V5.01156Z" fill="#2D8CFF"/>
</svg>
