<svg width="86" height="31" viewBox="0 0 86 31" fill="none" xmlns="http://www.w3.org/2000/svg">
<path d="M23.4473 6.46963C23.4368 6.40494 23.4049 6.34555 23.3566 6.30077C23.3083 6.256 23.2464 6.22839 23.1805 6.2223C23.0739 6.20541 20.7336 6.04503 20.7336 6.04503L18.9491 4.27824C18.7888 4.10097 18.4324 4.1533 18.2977 4.19045C18.2807 4.19045 17.9413 4.29596 17.388 4.47408C16.8492 2.93267 15.896 1.51789 14.2181 1.51789H14.0749C13.5932 0.901664 13.0049 0.617188 12.5061 0.617188C8.59788 0.63407 6.73413 5.46088 6.14584 7.92747L3.41416 8.75726C2.57607 9.02148 2.54453 9.04089 2.43369 9.83185L0.130859 27.4179L17.394 30.6172L26.7502 28.6199C26.7502 28.6031 23.4652 6.63846 23.4482 6.47132L23.4473 6.46963ZM16.4306 4.77122C15.9958 4.91303 15.4927 5.05485 14.9675 5.21439V4.89615C14.9846 4.10097 14.8627 3.30916 14.6112 2.55281C15.4859 2.68618 16.0742 3.65864 16.4306 4.77122ZM13.5574 2.75709C13.843 3.59026 13.9837 4.46817 13.9478 5.34861V5.50731L10.9297 6.43587C11.5205 4.25207 12.6093 3.17241 13.5557 2.76638L13.5574 2.75709ZM12.3978 1.6825C12.5769 1.68672 12.75 1.74159 12.8975 1.84119C11.6382 2.42197 10.3073 3.8874 9.73608 6.82164L7.34884 7.54591C8.02238 5.31906 9.59369 1.67743 12.3961 1.67743L12.3978 1.6825Z" fill="#95BF47"/>
<path d="M23.1843 6.2195C23.0778 6.20262 20.7374 6.04223 20.7374 6.04223L18.9529 4.27544C18.8873 4.20791 18.7978 4.17077 18.7031 4.16992L17.4004 30.6119L26.7567 28.6146L23.452 6.48287C23.4299 6.34781 23.3224 6.23976 23.1852 6.21866L23.1843 6.2195Z" fill="#5E8E3E"/>
<path d="M34.8685 16.4016C34.201 16.047 33.8557 15.7406 33.8557 15.3211C33.8557 14.7892 34.3246 14.4457 35.086 14.4457C35.6511 14.4578 36.2085 14.5785 36.7272 14.8011L37.3428 12.949C37.3428 12.949 36.7783 12.5168 35.1243 12.5168C32.8172 12.5168 31.2144 13.8252 31.2144 15.6638C31.2144 16.7038 31.9578 17.504 32.9571 18.0747C33.7645 18.5389 34.0484 18.8462 34.0484 19.3307C34.0484 19.8153 33.6511 20.2196 32.8948 20.2196C31.7805 20.2196 30.7293 19.649 30.7293 19.649L30.0762 21.501C30.0762 21.501 31.0507 22.1476 32.6783 22.1476C35.0484 22.1476 36.7536 20.9929 36.7536 18.9061C36.7664 17.7767 35.907 16.9899 34.8779 16.3931L34.8685 16.4016ZM44.3271 12.5058C43.1608 12.5058 42.2383 13.052 41.5324 13.8953L41.4931 13.8826L42.506 8.63544H39.8673L37.3035 21.9982H39.944L40.8281 17.4297C41.1743 15.7043 42.0754 14.6373 42.917 14.6373C43.5052 14.6373 43.7371 15.0307 43.7371 15.6022C43.7371 15.9905 43.6979 16.3762 43.622 16.7569L42.6228 21.9856H45.2633L46.3017 16.5831C46.4151 16.0234 46.4808 15.4553 46.4935 14.8863C46.4808 13.4141 45.6989 12.5261 44.328 12.5261L44.3271 12.5058ZM52.4523 12.5058C49.2738 12.5058 47.1713 15.3489 47.1713 18.4993C47.1713 20.5303 48.44 22.1544 50.8119 22.1544C53.9298 22.1544 56.0416 19.3873 56.0416 16.161C56.0416 14.2828 54.9273 12.5058 52.4565 12.5058H52.4523ZM51.1563 20.158C50.2586 20.158 49.8749 19.3983 49.8749 18.4613C49.8749 16.9638 50.6542 14.5149 52.0933 14.5149C53.0286 14.5149 53.3407 15.3143 53.3407 16.0892C53.3372 17.6973 52.5563 20.158 51.158 20.158H51.1563ZM62.7941 12.5058C61.0037 12.5058 59.9993 14.0489 59.9993 14.0489H59.9601L60.1161 12.6595H57.7775L57.2404 16.1247L55.4073 25.6939H58.0358L58.7673 21.8226H58.8185C58.8185 21.8226 59.3556 22.1654 60.3702 22.1654C63.4719 22.1654 65.4968 19.0184 65.4968 15.8377C65.5096 14.0861 64.7175 12.5134 62.7924 12.5134L62.7941 12.5058ZM60.2688 20.196C59.8703 20.2038 59.4825 20.0683 59.1774 19.8144L59.614 17.3647C59.926 15.7398 60.7803 14.6483 61.7028 14.6483C62.5102 14.6483 62.7532 15.3844 62.7532 16.0833C62.7575 17.786 61.7471 20.1968 60.2722 20.1968L60.2688 20.196ZM69.2806 8.7494C68.8764 8.74687 68.4877 8.90557 68.2038 9.19005C67.9198 9.47452 67.7621 9.8603 67.7775 10.2604C67.7775 11.032 68.2779 11.5688 69.0248 11.5688H69.064C69.2677 11.5769 69.471 11.5434 69.6612 11.4707C69.8513 11.3979 70.0244 11.2873 70.1698 11.1457C70.3151 11.0041 70.4296 10.8345 70.5061 10.6474C70.5827 10.4603 70.6197 10.2596 70.6149 10.0578C70.6149 9.2981 70.1016 8.7494 69.2934 8.7494H69.2806ZM65.5923 21.9729H68.2327L70.0266 12.7127H67.3768L65.5923 21.9729ZM76.7552 12.7H74.911L75.0014 12.2678C75.1574 11.3789 75.6937 10.5795 76.5599 10.5795C76.847 10.5796 77.1323 10.6223 77.4066 10.7061L77.9164 8.66077C77.9164 8.66077 77.4475 8.43285 76.4807 8.43285C75.5397 8.40968 74.6215 8.72014 73.8914 9.30823C72.9936 10.068 72.5698 11.1603 72.3567 12.2653L72.2714 12.6975H71.0412L70.6558 14.6643H71.8861L70.4827 21.9746H73.1325L74.5359 14.6643H76.357L76.7151 12.6975L76.7552 12.7ZM83.1138 12.7127L80.7163 19.0834H80.6771L80.024 12.7127H77.2412L78.8312 21.2149C78.8695 21.3602 78.8512 21.5144 78.7801 21.6471C78.4348 22.2776 77.9428 22.817 77.3443 23.2214C76.8856 23.5337 76.3852 23.7819 75.8574 23.9575L76.5889 26.1776C77.5562 25.9213 78.4441 25.4314 79.1731 24.7518C80.3778 23.6342 81.4921 21.9088 82.6346 19.5603L85.8642 12.7076H83.1129L83.1138 12.7127Z" fill="black"/>
</svg>
