<svg width="204" height="61" viewBox="0 0 204 61" fill="none" xmlns="http://www.w3.org/2000/svg">
<rect x="0.175781" y="0.622559" width="203" height="60" rx="4" fill="#2E54EA"/>
<path d="M38.7659 35.8226V29.3226H32.9259V31.5226H36.4859V34.6826C35.6859 35.3426 34.3659 35.6026 33.0859 35.6026C29.8459 35.6026 27.7859 33.4026 27.7859 30.5226C27.7859 27.7026 29.8859 25.4426 32.8659 25.4426C34.5859 25.4426 35.8459 26.0626 36.7659 26.9826L38.3659 25.3226C37.0459 23.9626 35.1859 23.1826 32.8659 23.1826C28.5859 23.1826 25.4259 26.4226 25.4259 30.5226C25.4259 34.6626 28.6459 37.8626 33.1059 37.8626C35.2859 37.8626 37.4859 37.2026 38.7659 35.8226ZM40.6394 32.6226C40.6394 35.6626 42.8194 37.8226 45.8594 37.8226C47.9594 37.8226 49.5194 36.9226 50.4194 35.5026L48.7394 34.3026C48.2194 35.1826 47.2794 35.8226 45.8794 35.8226C44.2194 35.8226 42.8994 34.7426 42.7994 33.1026H50.6594C50.6794 32.7826 50.6794 32.6026 50.6794 32.3826C50.6794 29.1626 48.4794 27.4226 45.8594 27.4226C42.8194 27.4226 40.6394 29.6826 40.6394 32.6226ZM45.7794 29.2826C47.0594 29.2826 48.2194 30.0626 48.4594 31.5026H42.8994C43.1994 30.0226 44.4994 29.2826 45.7794 29.2826ZM59.8652 37.2226L59.2052 35.3826C58.9052 35.5626 58.4052 35.7426 57.7852 35.7426C56.8452 35.7426 56.2252 35.2826 56.2252 34.0426V29.5826H59.2852V27.6226H56.2252V24.7226H54.0252V27.6226H51.5452V29.5826H54.0252V34.4026C54.0252 36.6626 55.5652 37.7226 57.5052 37.7226C58.5252 37.7226 59.4052 37.4426 59.8652 37.2226ZM73.0417 34.7226C73.0417 33.0826 72.0017 32.2026 70.2417 31.6826L69.2217 31.3826C68.2417 31.1026 68.0217 30.6826 68.0217 30.2026C68.0217 29.6026 68.7017 29.2626 69.3617 29.2626C70.1817 29.2626 70.8217 29.6626 71.2617 30.2826L72.7817 29.1226C72.0817 28.0226 70.9017 27.4226 69.4017 27.4226C67.4017 27.4226 65.8417 28.5026 65.8217 30.2826C65.8017 31.7626 66.7017 32.8626 68.4417 33.3426L69.3217 33.5826C70.5217 33.9426 70.8617 34.2826 70.8617 34.8626C70.8617 35.5626 70.2017 35.9226 69.4217 35.9226C68.4017 35.9226 67.4217 35.4226 67.0217 34.5426L65.4017 35.7026C66.1217 37.1226 67.6417 37.8226 69.4217 37.8226C71.4817 37.8226 73.0417 36.6426 73.0417 34.7226ZM82.2675 37.2226L81.6075 35.3826C81.3075 35.5626 80.8075 35.7426 80.1875 35.7426C79.2475 35.7426 78.6275 35.2826 78.6275 34.0426V29.5826H81.6875V27.6226H78.6275V24.7226H76.4275V27.6226H73.9475V29.5826H76.4275V34.4026C76.4275 36.6626 77.9675 37.7226 79.9075 37.7226C80.9275 37.7226 81.8075 37.4426 82.2675 37.2226ZM90.9613 36.6826V37.6226H93.1613V27.6226H90.9613V28.5426C90.2613 27.8226 89.2213 27.4226 88.0413 27.4226C85.0813 27.4226 83.0613 29.8026 83.0613 32.6226C83.0613 35.4426 85.0813 37.8226 88.0413 37.8226C89.2213 37.8226 90.2613 37.4226 90.9613 36.6826ZM85.3213 32.6226C85.3213 30.8626 86.5413 29.4226 88.3013 29.4226C89.5813 29.4226 90.4413 30.0226 90.9613 30.8026V34.4226C90.4413 35.2226 89.5813 35.8226 88.3013 35.8226C86.5413 35.8226 85.3213 34.3826 85.3213 32.6226ZM96.1441 37.6226H98.3441V31.2026C98.7841 30.1626 99.8241 29.6626 100.704 29.6626C101.044 29.6626 101.364 29.7026 101.564 29.7826L101.884 27.6426C101.644 27.5826 101.284 27.5226 100.864 27.5226C99.7441 27.5226 98.7241 28.2026 98.3441 28.9626V27.6226H96.1441V37.6226ZM110.685 37.2226L110.025 35.3826C109.725 35.5626 109.225 35.7426 108.605 35.7426C107.665 35.7426 107.045 35.2826 107.045 34.0426V29.5826H110.105V27.6226H107.045V24.7226H104.845V27.6226H102.365V29.5826H104.845V34.4026C104.845 36.6626 106.385 37.7226 108.325 37.7226C109.345 37.7226 110.225 37.4426 110.685 37.2226ZM111.479 32.6226C111.479 35.6626 113.659 37.8226 116.699 37.8226C118.799 37.8226 120.359 36.9226 121.259 35.5026L119.579 34.3026C119.059 35.1826 118.119 35.8226 116.719 35.8226C115.059 35.8226 113.739 34.7426 113.639 33.1026H121.499C121.519 32.7826 121.519 32.6026 121.519 32.3826C121.519 29.1626 119.319 27.4226 116.699 27.4226C113.659 27.4226 111.479 29.6826 111.479 32.6226ZM116.619 29.2826C117.899 29.2826 119.059 30.0626 119.299 31.5026H113.739C114.039 30.0226 115.339 29.2826 116.619 29.2826ZM123.081 32.6226C123.081 35.4426 125.101 37.8226 128.061 37.8226C129.241 37.8226 130.281 37.4226 130.981 36.6826V37.6226H133.181V23.0226H130.981V28.5426C130.281 27.8226 129.241 27.4226 128.061 27.4226C125.101 27.4226 123.081 29.8026 123.081 32.6226ZM130.981 34.4226C130.461 35.2226 129.601 35.8226 128.321 35.8226C126.561 35.8226 125.341 34.3826 125.341 32.6226C125.341 30.8626 126.561 29.4226 128.321 29.4226C129.601 29.4226 130.461 30.0226 130.981 30.8026V34.4226ZM140.871 37.6226H143.071V31.0026C143.491 30.0826 144.351 29.4226 145.531 29.4226C146.931 29.4226 147.731 30.4226 147.731 32.0026V37.6226H149.931V31.6426C149.931 29.0626 148.411 27.4226 146.011 27.4226C144.831 27.4226 143.751 27.8426 143.071 28.6826V27.6226H140.871V37.6226ZM162.506 32.6226C162.506 29.7226 160.226 27.4226 157.266 27.4226C154.306 27.4226 152.026 29.7226 152.026 32.6226C152.026 35.5226 154.306 37.8226 157.266 37.8226C160.226 37.8226 162.506 35.5226 162.506 32.6226ZM154.246 32.6226C154.246 30.8426 155.486 29.4626 157.266 29.4626C159.026 29.4626 160.266 30.8426 160.266 32.6226C160.266 34.4026 159.026 35.7826 157.266 35.7826C155.486 35.7826 154.246 34.4026 154.246 32.6226ZM173.16 37.6226H175.24L178.6 27.6226H176.26L174.08 34.5026L171.8 27.6226H170.12L167.82 34.5026L165.66 27.6226H163.34L166.7 37.6226H168.78L170.96 31.1426L173.16 37.6226Z" fill="white"/>
</svg>
