<svg width="269" height="61" viewBox="0 0 269 61" fill="none" xmlns="http://www.w3.org/2000/svg">
<rect x="0.826172" y="0.622559" width="268" height="60" rx="4" fill="#F0F5FF"/>
<path d="M39.0218 35.8226V29.3226H33.1818V31.5226H36.7418V34.6826C35.9418 35.3426 34.6218 35.6026 33.3418 35.6026C30.1018 35.6026 28.0418 33.4026 28.0418 30.5226C28.0418 27.7026 30.1418 25.4426 33.1218 25.4426C34.8418 25.4426 36.1018 26.0626 37.0218 26.9826L38.6218 25.3226C37.3018 23.9626 35.4418 23.1826 33.1218 23.1826C28.8418 23.1826 25.6818 26.4226 25.6818 30.5226C25.6818 34.6626 28.9018 37.8626 33.3618 37.8626C35.5418 37.8626 37.7418 37.2026 39.0218 35.8226ZM40.8952 32.6226C40.8952 35.6626 43.0752 37.8226 46.1152 37.8226C48.2152 37.8226 49.7752 36.9226 50.6752 35.5026L48.9952 34.3026C48.4752 35.1826 47.5352 35.8226 46.1352 35.8226C44.4752 35.8226 43.1552 34.7426 43.0552 33.1026H50.9152C50.9352 32.7826 50.9352 32.6026 50.9352 32.3826C50.9352 29.1626 48.7352 27.4226 46.1152 27.4226C43.0752 27.4226 40.8952 29.6826 40.8952 32.6226ZM46.0352 29.2826C47.3152 29.2826 48.4752 30.0626 48.7152 31.5026H43.1552C43.4552 30.0226 44.7552 29.2826 46.0352 29.2826ZM60.121 37.2226L59.461 35.3826C59.161 35.5626 58.661 35.7426 58.041 35.7426C57.101 35.7426 56.481 35.2826 56.481 34.0426V29.5826H59.541V27.6226H56.481V24.7226H54.281V27.6226H51.801V29.5826H54.281V34.4026C54.281 36.6626 55.821 37.7226 57.761 37.7226C58.781 37.7226 59.661 37.4426 60.121 37.2226ZM69.0776 24.3626C69.0776 23.5626 68.4176 22.9026 67.5976 22.9026C66.7976 22.9026 66.1376 23.5626 66.1376 24.3626C66.1376 25.1826 66.7976 25.8426 67.5976 25.8426C68.4176 25.8426 69.0776 25.1826 69.0776 24.3626ZM66.4976 37.6226H68.6976V27.6226H66.4976V37.6226ZM71.6538 37.6226H73.8538V31.0026C74.2738 30.0826 75.1338 29.4226 76.3138 29.4226C77.7138 29.4226 78.5138 30.4226 78.5138 32.0026V37.6226H80.7138V31.6426C80.7138 29.0626 79.1938 27.4226 76.7938 27.4226C75.6138 27.4226 74.5338 27.8426 73.8538 28.6826V27.6226H71.6538V37.6226ZM94.8476 37.2226L94.1876 35.3826C93.8876 35.5626 93.3876 35.7426 92.7676 35.7426C91.8276 35.7426 91.2076 35.2826 91.2076 34.0426V29.5826H94.2676V27.6226H91.2076V24.7226H89.0076V27.6226H86.5276V29.5826H89.0076V34.4026C89.0076 36.6626 90.5476 37.7226 92.4876 37.7226C93.5076 37.7226 94.3876 37.4426 94.8476 37.2226ZM106.101 32.6226C106.101 29.7226 103.821 27.4226 100.861 27.4226C97.9013 27.4226 95.6213 29.7226 95.6213 32.6226C95.6213 35.5226 97.9013 37.8226 100.861 37.8226C103.821 37.8226 106.101 35.5226 106.101 32.6226ZM97.8413 32.6226C97.8413 30.8426 99.0813 29.4626 100.861 29.4626C102.621 29.4626 103.861 30.8426 103.861 32.6226C103.861 34.4026 102.621 35.7826 100.861 35.7826C99.0813 35.7826 97.8413 34.4026 97.8413 32.6226ZM117.014 27.6226H114.814V34.2426C114.394 35.1826 113.554 35.8226 112.534 35.8226C111.154 35.8226 110.374 34.8226 110.374 33.2426V27.6226H108.174V33.6026C108.174 36.1826 109.694 37.8226 112.054 37.8226C113.054 37.8226 114.154 37.4226 114.814 36.5826V37.6226H117.014V27.6226ZM129.194 35.0626L127.274 34.0226C126.794 35.0426 125.814 35.7826 124.534 35.7826C122.754 35.7826 121.494 34.4026 121.494 32.6226C121.494 30.8426 122.754 29.4626 124.534 29.4626C125.814 29.4626 126.794 30.2026 127.274 31.2226L129.194 30.1826C128.334 28.5226 126.594 27.4226 124.534 27.4226C121.534 27.4226 119.254 29.6626 119.254 32.6226C119.254 35.5826 121.534 37.8226 124.534 37.8226C126.594 37.8226 128.334 36.7226 129.194 35.0626ZM131.205 37.6226H133.405V31.0026C133.825 30.0826 134.685 29.4226 135.865 29.4226C137.265 29.4226 138.065 30.4226 138.065 32.0026V37.6226H140.265V31.6426C140.265 29.0626 138.745 27.4226 136.345 27.4226C135.165 27.4226 134.085 27.8426 133.405 28.6826V23.0226H131.205V37.6226ZM155.955 37.6226H158.035L161.395 27.6226H159.055L156.875 34.5026L154.595 27.6226H152.915L150.615 34.5026L148.455 27.6226H146.135L149.495 37.6226H151.575L153.755 31.1426L155.955 37.6226ZM165.621 24.3626C165.621 23.5626 164.961 22.9026 164.141 22.9026C163.341 22.9026 162.681 23.5626 162.681 24.3626C162.681 25.1826 163.341 25.8426 164.141 25.8426C164.961 25.8426 165.621 25.1826 165.621 24.3626ZM163.041 37.6226H165.241V27.6226H163.041V37.6226ZM175.297 37.2226L174.637 35.3826C174.337 35.5626 173.837 35.7426 173.217 35.7426C172.277 35.7426 171.657 35.2826 171.657 34.0426V29.5826H174.717V27.6226H171.657V24.7226H169.457V27.6226H166.977V29.5826H169.457V34.4026C169.457 36.6626 170.997 37.7226 172.937 37.7226C173.957 37.7226 174.837 37.4426 175.297 37.2226ZM176.966 37.6226H179.166V31.0026C179.586 30.0826 180.446 29.4226 181.626 29.4226C183.026 29.4226 183.826 30.4226 183.826 32.0026V37.6226H186.026V31.6426C186.026 29.0626 184.506 27.4226 182.106 27.4226C180.926 27.4226 179.846 27.8426 179.166 28.6826V23.0226H176.966V37.6226ZM202.248 27.6226H200.048V34.2426C199.628 35.1826 198.788 35.8226 197.768 35.8226C196.388 35.8226 195.608 34.8226 195.608 33.2426V27.6226H193.408V33.6026C193.408 36.1826 194.928 37.8226 197.288 37.8226C198.288 37.8226 199.388 37.4226 200.048 36.5826V37.6226H202.248V27.6226ZM212.009 34.7226C212.009 33.0826 210.969 32.2026 209.209 31.6826L208.189 31.3826C207.209 31.1026 206.989 30.6826 206.989 30.2026C206.989 29.6026 207.669 29.2626 208.329 29.2626C209.149 29.2626 209.789 29.6626 210.229 30.2826L211.749 29.1226C211.049 28.0226 209.869 27.4226 208.369 27.4226C206.369 27.4226 204.809 28.5026 204.789 30.2826C204.769 31.7626 205.669 32.8626 207.409 33.3426L208.289 33.5826C209.489 33.9426 209.829 34.2826 209.829 34.8626C209.829 35.5626 209.169 35.9226 208.389 35.9226C207.369 35.9226 206.389 35.4226 205.989 34.5426L204.369 35.7026C205.089 37.1226 206.609 37.8226 208.389 37.8226C210.449 37.8226 212.009 36.6426 212.009 34.7226Z" fill="#2E54EA"/>
<path d="M232.826 22.6226L231.416 24.0326L236.996 29.6226H224.826V31.6226H236.996L231.416 37.2126L232.826 38.6226L240.826 30.6226L232.826 22.6226Z" fill="#2E54EA"/>
</svg>
